<?xml version="1.0" encoding="UTF-8"?><svg id="Layer_1" xmlns="http://www.w3.org/2000/svg" viewBox="0 0 792.1 128.6"><defs><style>.cls-1{fill:#006db9;stroke-width:0px;}</style></defs><polygon class="cls-1" points="0 105.4 0 99.1 11.8 86.8 17.5 64.7 36.8 34.9 50.9 23.2 67.1 14.3 75.2 9.1 95.8 4.4 113.8 4.4 132.8 14.3 135.5 14.3 142.8 7 150.1 2.6 155.3 0 164.4 0 170.9 2.6 182.1 10.7 194.1 10.9 210.1 9.9 217.9 13.8 221.5 16.9 224.7 24.2 229.6 29.4 239 30.2 239 33.1 237.7 36.5 229.9 34.7 220.8 34.9 214 37.5 214 32.3 204.1 21.3 198.3 15.3 196.2 15.9 195.7 17.7 195.7 19.3 198.3 21.9 198.8 26.1 196.8 30 198.3 34.1 190.5 33.4 176.7 26.8 163.1 18.7 161.8 18.7 161 20.8 161 23.2 161.8 26.1 162.1 33.6 159.7 40.7 155.8 49.8 148.2 56.1 138.6 59.4 138.6 76.4 141.5 81.9 157.1 93.6 165.7 99.4 175.9 98.8 179.3 97 184.5 95.4 189.2 93.9 194.4 92.8 196 92.3 196.5 94.7 195.2 96.5 189.5 99.9 185.3 101.4 184 104.3 181.9 107.4 168.6 107.4 166.2 110.1 163.1 111.6 160.8 109.3 159.5 103.8 152.7 97.5 137.5 91.3 128.1 88.7 119.5 88.7 112.8 91.3 104.7 96 101.5 99.6 96.3 103.3 85.4 108.2 77.8 109.5 71.3 109.8 60.1 110.1 60.1 111.6 60.8 113.7 63.5 115 66.1 116.6 70.2 117.9 73.9 117.9 76.8 117.9 78.3 119.2 78.1 121.5 75.7 123.1 71.8 124.1 70.2 125.2 70 127 66.8 127 64.8 125.7 62.4 125.7 59.5 127 58 128.6 53.8 128.6 52.2 125.4 52.2 110.3 50.4 108 46.2 106.9 41.8 106.9 37.9 105.6 36.1 107.2 29.3 112.1 26.7 112.9 23 110.6 18.8 104.8 19.1 102.5 24.3 99.1 32.4 93.9 37.4 91.8 37.1 82.9 32.9 85.3 29 86.8 23.5 88.9 19.4 92.1 18.1 96.5 15.5 97.8 12.6 96.5 11.8 98.1 0 105.4"/><path class="cls-1" d="M263.7,41v-1.5l3.4-1c.2,0,.4-.2.6-.3.1-.2.2-.4.2-.7V14.2h-6.8c-.2,0-.4,0-.6.2-.2.1-.3.3-.3.6l-.8,4.4h-2.4v-7.6h26v7.6h-2.4l-.8-4.4c0-.3-.2-.5-.3-.6-.1-.1-.3-.2-.5-.2h-6.8v23.3c0,.3,0,.5.2.7.2.2.3.3.6.3l3.4,1v1.5h-12.6Z"/><path class="cls-1" d="M283.9,39.5l2.5-.8c.3-.1.5-.2.6-.4.1-.1.2-.4.2-.6V13.5c0-.3,0-.5-.2-.7-.2-.2-.4-.3-.6-.4l-2.6-1.2v-1.4l7.6-.4v12.7c.8-1.1,1.6-1.9,2.4-2.4s1.6-.9,2.4-1,1.5-.2,2.3-.2c1.3,0,2.5.3,3.5.8,1.1.5,1.9,1.3,2.6,2.4.6,1.1,1,2.5,1,4.3v11.8c0,.3,0,.6.2.7s.3.3.6.4l2.2.8v1.5h-10v-1.5l2.1-.8c.2,0,.4-.2.6-.4s.2-.4.2-.7v-10c0-1.3-.1-2.4-.4-3.3s-.7-1.6-1.4-2.1c-.7-.5-1.7-.7-3-.7s-1.9.2-2.8.4c-1,.3-1.8.9-2.4,1.7v14.1c0,.3,0,.5.2.6s.3.3.6.4l1.9.8v1.5h-10.1v-1.5h0Z"/><path class="cls-1" d="M320,41.5c-2,0-3.8-.4-5.4-1.3-1.6-.9-2.9-2.1-3.8-3.8-.9-1.7-1.4-3.8-1.4-6.2s.5-4.2,1.3-5.9c.9-1.8,2.1-3.2,3.7-4.2,1.6-1,3.4-1.6,5.5-1.6s3.6.4,5,1.2c1.4.8,2.4,1.9,3.1,3.2.7,1.3,1.1,2.8,1.1,4.3s0,.4,0,.7c0,.3,0,.6,0,.8s0,.5-.1.7h-15.7v-2.1h11.5c0-1.3-.2-2.5-.5-3.5-.3-1-.9-1.7-1.6-2.3-.7-.5-1.7-.8-3-.8s-2.2.3-3,.8c-.8.5-1.4,1.2-1.9,2-.5.9-.8,1.8-1,2.8s-.3,2-.3,2.9c0,1.7.2,3.3.8,4.7s1.3,2.5,2.4,3.3,2.6,1.2,4.6,1.2,2-.1,2.9-.5c.9-.3,1.7-.7,2.5-1.1s1.3-.8,1.8-1.2h.6v2.4c-1,.8-2.3,1.6-4,2.4s-3.4,1.1-5.2,1.1Z"/><path class="cls-1" d="M294.9,99.7v-12c0-.5-.1-.9-.4-1.1-.2-.2-.5-.4-.9-.5l-6.9-1.8v-2.5h21v2.5l-4.4,1.8c-.3.1-.6.3-.9.5-.3.2-.4.6-.4,1.1v5.7c0,2.2,0,4,0,5.6,0,1.5,0,2.8.2,3.7-2.5.9-5.5,1.8-8.8,2.5s-6.8,1.1-10.2,1.1-8.3-1-12-3c-3.6-2-6.5-4.9-8.7-8.8s-3.3-8.6-3.3-14.1,1.1-9.9,3.2-13.8,5.1-6.9,8.8-9.1,8-3.2,12.7-3.2,4.2.1,6.1.3c1.9.2,3.9.5,5.8.9,1.9.4,3.9.9,6,1.4v12.7h-4.1l-1.3-7.2c0-.4-.3-.7-.6-.9-.3-.2-.6-.4-1-.5-1.7-.7-3.5-1.3-5.5-1.8s-4-.7-6.1-.7c-3.2,0-6,.8-8.4,2.2-2.4,1.5-4.3,3.7-5.7,6.7s-2,6.8-2,11.4.7,8.5,2.1,12c1.4,3.5,3.4,6.2,6,8.1,2.6,2,5.8,2.9,9.6,2.9s3-.1,4.3-.4c1.3-.3,2.5-.6,3.5-.9,1-.4,1.7-.7,2.2-.9Z"/><path class="cls-1" d="M321.2,105.8c-2.2,0-4.2-.5-5.8-1.5s-2.8-2.3-3.7-3.9c-.9-1.6-1.3-3.3-1.3-5.1s.6-4.4,1.8-6c1.2-1.6,2.7-2.9,4.5-3.9s3.8-1.7,5.9-2.1,4-.7,5.7-.7.9,0,1.7.1,1.5.1,2.3.2c.8,0,1.3.1,1.6.2v-5.1c0-2.6-.6-4.4-1.9-5.4-1.3-1-3-1.5-5-1.5s-2.4.2-3.5.6c-1.2.4-2.3.9-3.4,1.5-1.1.6-2.1,1.2-3,1.9-.9.6-1.7,1.1-2.3,1.6h-1.4l-.2-6.8c1.3-.5,2.7-1,4.1-1.5s2.9-.9,4.6-1.2,3.5-.5,5.6-.5,4.4.3,6.5,1c2.1.7,3.7,1.9,5.1,3.6s2,4.2,1.9,7.4v19.2c0,.9.3,1.6.9,2.1.7.5,1.4.8,2.3.8s1-.1,1.6-.4c.6-.2,1.2-.5,1.8-.7h.5v2.9c-.4.3-1.1.7-1.9,1.2s-1.7.9-2.6,1.3c-.9.4-1.8.6-2.5.6-2.2,0-3.8-.5-4.9-1.5s-1.6-2.6-1.6-4.8h-.5c-1.3,1.8-2.7,3.2-4.2,4.1s-3.1,1.5-4.6,1.8c-1.5.3-2.9.5-4.1.5ZM324.6,100.8c1.5,0,3.2-.3,5.1-.9,1.9-.6,3.3-1.6,4.4-3v-10.5c-3.2,0-6,.2-8.5.6-2.4.4-4.3,1.2-5.7,2.3s-2,2.7-2,4.9.4,3.1,1,4.1,1.6,1.6,2.6,2c1,.4,2.1.6,3.1.6Z"/><path class="cls-1" d="M347.3,105v-2.5l5.2-1.4c.4-.1.7-.3,1-.6.3-.3.4-.6.4-1.1v-41.1c0-.5-.2-.9-.5-1.2s-.7-.5-1.1-.7l-5.3-2v-2.5l13.8-.6v48c0,.5.1.9.4,1.1s.6.5,1,.6l5.1,1.4v2.5h-20Z"/><path class="cls-1" d="M368.2,105v-2.5l5.2-1.4c.4-.1.7-.3,1-.6.3-.3.4-.6.4-1.1v-41.1c0-.5-.2-.9-.5-1.2s-.7-.5-1.1-.7l-5.3-2v-2.5l13.8-.6v48c0,.5.1.9.4,1.1s.6.5,1,.6l5.1,1.4v2.5h-20Z"/><path class="cls-1" d="M408.5,105.9c-3.6,0-6.8-.8-9.5-2.4s-4.8-3.8-6.3-6.7-2.2-6.4-2.2-10.4.8-7.1,2.2-10,3.6-5.3,6.4-7c2.8-1.7,6-2.6,9.8-2.6s7.5.9,10.1,2.7,4.6,4.2,6,7.2,2,6.2,2,9.6-.7,7-2.2,9.9c-1.5,3-3.6,5.3-6.3,7.1-2.8,1.7-6,2.6-9.8,2.6ZM408.9,102.1c2,0,3.7-.5,5-1.4,1.3-.9,2.4-2.1,3.1-3.6.8-1.5,1.3-3.1,1.6-4.9.3-1.8.5-3.5.5-5.2,0-2.8-.4-5.4-1.1-7.9-.7-2.5-1.9-4.6-3.5-6.2-1.6-1.6-3.7-2.4-6.4-2.4s-3.6.5-5,1.4c-1.3.9-2.4,2.1-3.1,3.6s-1.3,3.1-1.7,4.9c-.3,1.8-.5,3.5-.5,5.1s.2,3.8.5,5.7c.4,1.9,1,3.7,1.8,5.4.8,1.6,2,3,3.4,4,1.4,1,3.1,1.5,5.2,1.5Z"/><path class="cls-1" d="M429.3,122.1v-2.5l4.4-1.4c.4-.1.8-.3,1-.6s.4-.6.4-1.1v-41.6c0-.5-.1-.9-.4-1.2s-.6-.5-1.1-.7l-4.1-1.7v-2.5l11.9-1.9v6.2h.5c1.1-1.6,2.3-2.9,3.6-3.8,1.3-.9,2.8-1.6,4.2-2s3-.6,4.4-.6c3.1,0,5.8.8,8,2.4s3.9,3.7,5.1,6.4,1.8,5.8,1.8,9.2-.7,7.3-2.1,10.4-3.5,5.6-6.1,7.5-5.8,2.8-9.5,2.8-4-.4-5.5-1.1-2.8-1.6-3.7-2.6v14.7c0,.5.1.9.4,1.1.3.2.6.4,1,.5l5.4,1.5v2.5h-19.5ZM442,75.8v23.4c.7.4,1.6.8,2.6,1.1s2.1.5,3.1.6,1.9.2,2.5.2c2.6,0,4.7-.6,6.4-1.9,1.7-1.3,2.9-3,3.7-5.1.8-2.1,1.2-4.4,1.2-6.9s-.4-5.5-1.2-7.8-2-4.1-3.7-5.5-3.8-2-6.5-2-3.2.3-4.6,1c-1.5.7-2.7,1.7-3.6,3Z"/><path class="cls-1" d="M471.8,105v-2.5l5.2-1.4c.4-.1.8-.3,1-.6s.4-.6.4-1.1v-24.2c0-.5-.1-.9-.4-1.2-.3-.3-.7-.5-1.1-.6l-5.1-1.7v-2.5l13.5-1.9v32c0,.5.1.9.4,1.1.3.3.6.5,1,.6l5.2,1.4v2.5h-20.1ZM481.3,60.4c-.9,0-1.7-.2-2.5-.5s-1.4-.9-1.8-1.6-.7-1.5-.7-2.4c0-1.5.5-2.6,1.5-3.4,1-.8,2.2-1.2,3.5-1.2s2.8.4,3.8,1.1,1.4,1.8,1.4,3.2-.2,1.9-.7,2.6c-.5.7-1.1,1.3-1.8,1.6-.8.4-1.7.6-2.7.6Z"/><path class="cls-1" d="M493.6,105v-2.5l4.2-1.4c.4-.1.8-.3,1-.6.2-.3.4-.6.4-1.1v-24.5c0-.5-.1-.9-.4-1.2-.3-.3-.7-.5-1.1-.7l-4.1-1.7v-2.5l11.9-1.9v5.9h.5c1.4-1.8,2.8-3.1,4.1-4s2.7-1.5,4.1-1.8,2.7-.4,4-.4c2.2,0,4.2.4,6,1.3s3.2,2.2,4.3,4.1c1.1,1.9,1.6,4.2,1.6,7.2v19.9c0,.6.1,1,.4,1.2.3.3.6.5,1,.6l3.7,1.4v2.5h-17v-2.5l3.5-1.4c.4-.2.8-.4,1-.6.3-.2.4-.7.4-1.2v-16.9c0-2.2-.2-4-.6-5.6-.4-1.5-1.2-2.7-2.3-3.5-1.2-.8-2.9-1.2-5.2-1.2s-3.1.2-4.8.8-3.1,1.4-4.2,2.8v23.8c0,.5.1.9.4,1.1s.6.5,1,.6l3.2,1.4v2.5h-17.2Z"/><path class="cls-1" d="M553.7,92.1c-1.4,0-2.7-.1-4-.4s-2.2-.5-2.8-.8c-.6.2-1.1.6-1.7,1.3-.5.7-.8,1.5-.8,2.5s.3,1.7.8,2.4c.6.7,1.2,1.2,1.9,1.4h13c3.2,0,5.7.5,7.6,1.4s3.2,2.2,4,3.6c.8,1.4,1.2,2.9,1.2,4.4,0,2.8-.9,5.2-2.6,7.3-1.8,2.1-4.1,3.8-7.1,5-3,1.2-6.3,1.8-10,1.8s-6-.4-8.5-1.1-4.5-1.8-5.9-3.2c-1.4-1.4-2.2-3.1-2.2-5.1s.8-4.2,2.3-5.6,3.3-2.4,5.4-2.9v-.4c-.8-.2-1.6-.7-2.5-1.2s-1.6-1.3-2.2-2.1c-.6-.9-.9-1.9-.9-3.2s.3-2.7,1-3.7c.7-1,1.5-1.8,2.5-2.4,1-.6,2-1,3-1.2v-.4c-.9-.5-1.8-1.2-2.7-2-1-.8-1.8-1.9-2.4-3.2s-1-2.8-1-4.6.6-4.7,1.8-6.7c1.2-1.9,2.9-3.5,5.2-4.6s4.9-1.7,7.9-1.7,3.1,0,4.4.3,2.6.4,3.8.7h12.3l-.2,4.4-8.9-.6v.3c1,1.2,1.7,2.3,2.3,3.4.6,1.1.9,2.6.9,4.5,0,3.5-1.3,6.4-3.9,8.8s-6.3,3.5-11,3.5ZM554.8,118.2c2,0,3.9-.3,5.8-.8,1.9-.5,3.4-1.4,4.6-2.6,1.2-1.2,1.8-2.8,1.8-4.7s-.6-2.6-1.7-3.8-3-1.9-5.6-1.9h-12c-.9.2-1.8.9-2.8,1.9-.9,1-1.4,2.5-1.4,4.4s.4,2.7,1.2,3.6c.8,1,1.8,1.7,3,2.3,1.2.5,2.5.9,3.7,1.2,1.3.2,2.5.3,3.5.3ZM553.8,88.9c1.7,0,3.1-.4,4.2-1.1,1.2-.7,2-1.8,2.7-3.2s.9-3.2.9-5.4c0-3.1-.7-5.4-2.1-6.9-1.4-1.5-3.3-2.3-5.6-2.3s-2.5.3-3.6.9-2,1.6-2.7,3-1,3.1-1,5.4c0,3.2.7,5.6,2,7.2s3.1,2.4,5.3,2.4Z"/><path class="cls-1" d="M631,99.7v-12c0-.5-.1-.9-.4-1.1-.2-.2-.5-.4-.9-.5l-6.9-1.8v-2.5h21v2.5l-4.4,1.8c-.3.1-.6.3-.9.5s-.4.6-.4,1.1v5.7c0,2.2,0,4,0,5.6s0,2.8.2,3.7c-2.5.9-5.5,1.8-8.8,2.5-3.4.7-6.8,1.1-10.2,1.1s-8.3-1-12-3c-3.6-2-6.5-4.9-8.7-8.8-2.2-3.9-3.3-8.6-3.3-14.1s1.1-9.9,3.2-13.8c2.2-3.9,5.1-6.9,8.8-9.1s8-3.2,12.7-3.2,4.2.1,6.2.3c1.9.2,3.8.5,5.8.9,1.9.4,3.9.9,6,1.4v12.7h-4.1l-1.3-7.2c0-.4-.3-.7-.6-.9-.3-.2-.7-.4-1-.5-1.7-.7-3.5-1.3-5.5-1.8s-4-.7-6.1-.7c-3.2,0-6,.8-8.4,2.2s-4.3,3.7-5.7,6.7-2,6.8-2,11.4.7,8.5,2.1,12,3.4,6.2,6,8.1c2.6,2,5.8,2.9,9.6,2.9s3-.1,4.3-.4,2.5-.6,3.5-.9c1-.4,1.7-.7,2.2-.9Z"/><path class="cls-1" d="M664.3,105.9c-3.6,0-6.8-.8-9.5-2.4s-4.8-3.8-6.3-6.7-2.2-6.4-2.2-10.4.8-7.1,2.2-10,3.6-5.3,6.4-7c2.8-1.7,6-2.6,9.8-2.6s7.5.9,10.1,2.7,4.6,4.2,6,7.2,2,6.2,2,9.6-.7,7-2.2,9.9c-1.5,3-3.6,5.3-6.3,7.1-2.8,1.7-6,2.6-9.8,2.6ZM664.8,102.1c2,0,3.7-.5,5-1.4,1.3-.9,2.4-2.1,3.1-3.6.8-1.5,1.3-3.1,1.7-4.9.3-1.8.5-3.5.5-5.2,0-2.8-.4-5.4-1.1-7.9-.7-2.5-1.9-4.6-3.5-6.2-1.6-1.6-3.7-2.4-6.4-2.4s-3.6.5-5,1.4c-1.3.9-2.4,2.1-3.1,3.6s-1.3,3.1-1.7,4.9-.5,3.5-.5,5.1.2,3.8.5,5.7,1,3.7,1.8,5.4c.8,1.6,2,3,3.3,4,1.4,1,3.1,1.5,5.2,1.5Z"/><path class="cls-1" d="M704.1,105.9c-3.6,0-6.8-.8-9.5-2.4s-4.8-3.8-6.3-6.7-2.2-6.4-2.2-10.4.8-7.1,2.2-10,3.6-5.3,6.4-7c2.8-1.7,6-2.6,9.8-2.6s7.5.9,10.1,2.7,4.6,4.2,6,7.2,2,6.2,2,9.6-.7,7-2.2,9.9c-1.5,3-3.6,5.3-6.3,7.1-2.8,1.7-6,2.6-9.8,2.6ZM704.6,102.1c2,0,3.7-.5,5-1.4,1.3-.9,2.4-2.1,3.1-3.6.8-1.5,1.3-3.1,1.7-4.9.3-1.8.5-3.5.5-5.2,0-2.8-.4-5.4-1.1-7.9-.7-2.5-1.9-4.6-3.5-6.2-1.6-1.6-3.7-2.4-6.4-2.4s-3.6.5-5,1.4c-1.3.9-2.4,2.1-3.1,3.6s-1.3,3.1-1.7,4.9-.5,3.5-.5,5.1.2,3.8.5,5.7,1,3.7,1.8,5.4c.8,1.6,2,3,3.3,4,1.4,1,3.1,1.5,5.2,1.5Z"/><path class="cls-1" d="M726.9,103.4v-8.8h4.1l1.1,3.4c.2.5.4.9.7,1.2.3.3.6.6.9.8.9.5,2,.9,3.3,1.3,1.3.4,2.6.5,3.8.5s2.5-.2,3.8-.6,2.3-1,3.2-1.9c.8-.8,1.3-1.9,1.3-3.3s-.5-3-1.6-3.8c-1-.8-2.5-1.5-4.4-2-1.3-.4-2.6-.8-3.9-1.1s-2.6-.7-3.8-1.1c-2.6-.8-4.6-2.1-6-3.8s-2-3.8-2-6.1.7-4.1,2.2-5.8,3.3-3,5.7-4,4.9-1.5,7.5-1.5,4.1.1,5.7.4c1.7.3,3.3.7,5.1,1.2v9c.1,0-4,0-4,0l-1.1-3.6c-.1-.4-.3-.7-.6-1-.3-.3-.6-.5-1-.7-.8-.4-1.7-.7-2.6-.9s-2-.3-3-.3c-2.1,0-3.9.4-5.3,1.3-1.4.8-2.1,2.1-2.1,3.8s.5,3.1,1.6,4c1.1.9,2.8,1.7,5,2.4,1.1.3,2.2.6,3.3,1,1.1.3,2.2.6,3.2.9,2.9.9,5,2,6.5,3.4,1.4,1.4,2.2,3.4,2.2,6s-.8,4.7-2.3,6.5c-1.5,1.8-3.5,3.2-5.9,4.2s-5,1.5-7.6,1.5-4.9-.3-7-.8c-2.2-.5-4.1-1.1-5.9-1.7Z"/><path class="cls-1" d="M776.3,105.8c-3.3,0-6.4-.7-9.1-2.2s-4.8-3.6-6.4-6.5c-1.6-2.9-2.4-6.4-2.4-10.5s.8-7.1,2.3-10.1c1.5-3,3.6-5.4,6.3-7.1s5.8-2.6,9.4-2.6,6.1.7,8.4,2.1c2.3,1.4,4.1,3.2,5.3,5.4,1.2,2.2,1.8,4.7,1.8,7.3s0,.7,0,1.2,0,.9,0,1.4c0,.5,0,.9-.2,1.2h-26.5l.2-3.6h19.3c0-2.3-.3-4.2-.8-5.9s-1.5-2.9-2.7-3.9c-1.3-.9-2.9-1.4-5-1.4s-3.7.4-5.1,1.3c-1.3.9-2.4,2-3.2,3.4-.8,1.4-1.3,3-1.7,4.7-.3,1.7-.5,3.4-.5,5,0,2.9.4,5.6,1.3,7.9s2.2,4.2,4.1,5.6,4.5,2.1,7.7,2.1,3.4-.3,5-.8,2.9-1.1,4.2-1.9c1.2-.7,2.2-1.4,3-2h1v4c-1.7,1.4-4,2.7-6.7,4-2.8,1.2-5.7,1.9-8.9,1.9Z"/></svg>