<?xml version="1.0" encoding="UTF-8"?>
<svg id="_2" data-name="2" xmlns="http://www.w3.org/2000/svg" viewBox="0 0 722.5 660.4">
  <defs>
    <style>
      .cls-1, .cls-2 {
        stroke-width: 0px;
      }

      .cls-2 {
        fill: #ffbd59;
      }
    </style>
  </defs>
  <g>
    <path class="cls-1" d="M255.4,226.1c46.2-4.8,77.9-58.6,70.8-120.1C319,44.5,275.8-1.4,229.6,3.4c-46.2,4.8-77.9,58.6-70.8,120.1,7.1,61.5,50.3,107.4,96.5,102.6Z"/>
    <path class="cls-1" d="M148.5,382.8c39-23.8,44.9-85.5,13.2-137.8-31.7-52.3-89.1-75.4-128.1-51.6-39,23.8-44.9,85.5-13.2,137.8,31.7,52.3,89.1,75.4,128.1,51.6Z"/>
    <path class="cls-1" d="M465.3,223.4c46.4,3.7,87.2-43.4,91.1-105,3.9-61.7-30.6-114.6-77-118.2-46.4-3.6-87.2,43.4-91.1,105-3.9,61.7,30.6,114.6,77,118.2Z"/>
    <path class="cls-1" d="M685.2,185.1c-40.2-22.8-96.3,1.7-125.3,54.8-29,53.1-19.8,114.6,20.4,137.4,40.2,22.8,96.3-1.7,125.3-54.8,29-53.1,19.8-114.6-20.4-137.4Z"/>
    <path class="cls-1" d="M450,309.8c-19.9-29-52.8-48.1-89.9-47.6-37.2.5-69,20.4-87.4,49.9-20.3,32.6-27.3,65.4-47.4,88.2-20.1,22.8-105.8,27.1-109.5,130-2.6,72.7,61.8,131,133.8,130.1,54.7-.7,88.5-20.4,120.3-20.8,31.8-.4,66.6,18.4,121.3,17.7,72-.9,133.3-60.8,126.9-133.4-9-102.8-95-104.8-116.2-127.1-21.2-22.3-30-54.9-51.9-86.9Z"/>
  </g>
  <g>
    <path class="cls-2" d="M217.5,461.3v33.8h-2.7c-.9-6.5-2.4-11.6-4.6-15.5-2.2-3.8-5.4-6.9-9.5-9.2-4.1-2.3-8.4-3.4-12.8-3.4s-9.1,1.5-12.4,4.6c-3.3,3.1-4.9,6.5-4.9,10.4s1,5.7,3.1,8.1c3,3.6,10.1,8.4,21.3,14.4,9.1,4.9,15.4,8.7,18.7,11.3,3.3,2.6,5.9,5.7,7.7,9.3,1.8,3.6,2.7,7.3,2.7,11.2,0,7.4-2.9,13.8-8.6,19.1-5.7,5.4-13.1,8-22.2,8s-5.5-.2-8-.6c-1.5-.2-4.6-1.1-9.3-2.6-4.7-1.5-7.6-2.3-8.9-2.3s-2.2.4-2.8,1.1c-.7.7-1.2,2.2-1.5,4.5h-2.7v-33.5h2.7c1.2,7,2.9,12.3,5,15.7,2.1,3.5,5.3,6.4,9.7,8.7,4.3,2.3,9.1,3.5,14.3,3.5s10.7-1.6,14.2-4.8c3.5-3.2,5.2-6.9,5.2-11.2s-.7-4.8-2-7.3c-1.3-2.5-3.4-4.7-6.2-6.8-1.9-1.4-7-4.5-15.3-9.2-8.4-4.7-14.3-8.4-17.8-11.2-3.5-2.8-6.2-5.9-8-9.2-1.8-3.4-2.7-7.1-2.7-11.1,0-7,2.7-13.1,8.1-18.1,5.4-5.1,12.2-7.6,20.5-7.6s10.7,1.3,16.5,3.8c2.7,1.2,4.6,1.8,5.7,1.8s2.3-.4,3.1-1.1c.8-.7,1.4-2.2,1.9-4.5h2.7Z"/>
    <path class="cls-2" d="M262.1,515.5v28.5c0,6.1.7,10,2,11.5,1.8,2.1,4.6,3.2,8.3,3.2h3.7v2.7h-41.9v-2.7h3.7c4.1,0,7.1-1.3,8.9-4,1-1.5,1.4-5,1.4-10.6v-63.1c0-6.1-.6-10-1.9-11.5-1.9-2.1-4.7-3.2-8.4-3.2h-3.7v-2.7h35.8c8.7,0,15.6.9,20.7,2.7,5,1.8,9.3,4.8,12.8,9.1s5.2,9.3,5.2,15.2-2.6,14.5-7.9,19.5c-5.3,5-12.7,7.5-22.3,7.5s-4.9-.2-7.6-.5c-2.7-.3-5.7-.8-8.8-1.5ZM262.1,511.4c2.5.5,4.8.8,6.8,1.1,2,.2,3.6.4,5,.4,5,0,9.3-1.9,12.9-5.8,3.6-3.9,5.4-8.9,5.4-15s-.9-8.2-2.6-11.8c-1.7-3.6-4.2-6.3-7.3-8.1-3.2-1.8-6.8-2.7-10.8-2.7s-5.6.5-9.4,1.4v40.6Z"/>
    <path class="cls-2" d="M344.8,468.9v38.6h21.5c5.6,0,9.3-.8,11.2-2.5,2.5-2.2,3.9-6.1,4.2-11.7h2.7v34h-2.7c-.7-4.8-1.3-7.8-2-9.2-.9-1.7-2.3-3-4.3-4s-5-1.4-9.1-1.4h-21.5v32.2c0,4.3.2,7,.6,7.9.4.9,1.1,1.7,2,2.2,1,.6,2.8.8,5.5.8h16.6c5.5,0,9.5-.4,12-1.2,2.5-.8,4.9-2.3,7.2-4.5,3-3,6-7.5,9.2-13.5h2.9l-8.4,24.5h-75.3v-2.7h3.5c2.3,0,4.5-.6,6.6-1.7,1.5-.8,2.6-1.9,3.1-3.5.6-1.5.8-4.7.8-9.4v-63.5c0-6.2-.6-10-1.9-11.5-1.7-1.9-4.6-2.9-8.6-2.9h-3.5v-2.7h75.3l1.1,21.4h-2.8c-1-5.1-2.1-8.7-3.4-10.6-1.2-1.9-3-3.4-5.4-4.4-1.9-.7-5.3-1.1-10.2-1.1h-26.8Z"/>
    <path class="cls-2" d="M434.9,468.9v38.6h21.5c5.6,0,9.3-.8,11.2-2.5,2.5-2.2,3.9-6.1,4.2-11.7h2.7v34h-2.7c-.7-4.8-1.3-7.8-2-9.2-.9-1.7-2.3-3-4.3-4s-5-1.4-9.1-1.4h-21.5v32.2c0,4.3.2,7,.6,7.9.4.9,1.1,1.7,2,2.2,1,.6,2.8.8,5.5.8h16.6c5.5,0,9.5-.4,12-1.2,2.5-.8,4.9-2.3,7.2-4.5,3-3,6-7.5,9.2-13.5h2.9l-8.4,24.5h-75.3v-2.7h3.5c2.3,0,4.5-.6,6.6-1.7,1.5-.8,2.6-1.9,3.1-3.5.6-1.5.8-4.7.8-9.4v-63.5c0-6.2-.6-10-1.9-11.5-1.7-1.9-4.6-2.9-8.6-2.9h-3.5v-2.7h75.3l1.1,21.4h-2.8c-1-5.1-2.1-8.7-3.4-10.6-1.2-1.9-3-3.4-5.4-4.4-1.9-.7-5.3-1.1-10.2-1.1h-26.8Z"/>
    <path class="cls-2" d="M496.7,561.2v-2.7h3.7c4.1,0,7.1-1.3,8.8-4,1.1-1.6,1.6-5.1,1.6-10.7v-63.1c0-6.1-.7-9.9-2-11.5-1.9-2.1-4.7-3.2-8.4-3.2h-3.7v-2.7h39.8c14.6,0,25.7,1.7,33.3,5,7.6,3.3,13.7,8.8,18.4,16.6,4.6,7.7,7,16.7,7,26.8s-4.1,25-12.4,34.1c-9.3,10.2-23.4,15.3-42.4,15.3h-43.7ZM524.6,554.2c6.1,1.3,11.2,2,15.3,2,11.1,0,20.4-3.9,27.7-11.7,7.3-7.8,11-18.4,11-31.8s-3.7-24.1-11-31.9c-7.3-7.8-16.8-11.7-28.3-11.7s-9.2.7-14.8,2.1v83.1Z"/>
  </g>
</svg>