<?xml version="1.0" encoding="UTF-8"?><svg id="Layer_1" xmlns="http://www.w3.org/2000/svg" viewBox="0 0 1262.6 529.7"><defs><style>.cls-1{fill:#fff;stroke-width:0px;}</style></defs><path class="cls-1" d="M331.2,199.1c8.8-18.3,13.7-38.7,13.7-60.4C344.9,62.1,283.3,0,207.3,0S69.6,62.1,69.6,138.7s4.1,38.6,11.5,55.6C34.9,203.1,0,244,0,293.2s44.8,100.8,100,100.8,26.5-2.7,38.3-7.7l-51.4-51.8c-3.3-3.3-3.3-8.7,0-12,3.3-3.3,8.6-3.3,11.9,0l55.1,55.5c15.4-10,27.9-24,36-40.7v-132.6c0-9.4,7.5-17,16.9-17s16.9,7.6,16.9,17v158.5c.1.2.3.3.5.5l96.5-97.3c3.3-3.3,8.6-3.3,11.9,0,3.3,3.3,3.3,8.7,0,12l-95.7,96.4c16.5,12.1,36.7,19.2,58.7,19.2,55.2,0,100-45.1,100-100.8s-26.7-79.6-64.3-94.1Z"/><path class="cls-1" d="M224,363.6l-.5.5v-.9c-12.7-13.3-21.8-30-25.8-48.7-1.7,8-4.4,15.7-7.9,22.8v76.9l-36-36.2c-4.9,3.2-10.2,6-15.6,8.3l41.8,42.2c1.6,1.7,3.8,2.5,6,2.5s2.6-.3,3.8-.9v81.5c0,9.4,7.5,17,16.9,17s16.9-7.6,16.9-17v-131.2c1.1.5,2.3.8,3.5.8,2.2,0,4.3-.8,6-2.5l3.8-3.8c-4.6-3.3-8.8-7.1-12.8-11.1Z"/><path class="cls-1" d="M465.7,385.2V100h-105.7v-38.2h254.3v38.2h-106.2v285.2h-42.5Z"/><path class="cls-1" d="M635.8,385.2v-234.2h35.5v35.5c9-16.6,17.4-27.6,25.1-32.9,7.7-5.3,16.1-7.9,25.3-7.9,13.3,0,26.8,4.3,40.5,12.8l-13.6,36.8c-9.6-5.7-19.3-8.6-28.9-8.6s-16.3,2.6-23.2,7.8c-6.9,5.2-11.7,12.5-14.7,21.7-4.4,14.1-6.6,29.6-6.6,46.3v122.6h-39.4Z"/><path class="cls-1" d="M944.6,309.8l40.7,5.1c-6.4,24-18.3,42.6-35.7,55.8-17.4,13.2-39.5,19.8-66.5,19.8s-61-10.5-80.9-31.6c-19.9-21.1-29.9-50.7-29.9-88.8s10.1-70,30.2-91.8c20.1-21.8,46.3-32.6,78.4-32.6s56.5,10.7,76.2,32c19.7,21.3,29.5,51.3,29.5,90s0,5.9-.2,10.6h-173.3c1.5,25.7,8.7,45.4,21.7,59.1,13,13.7,29.2,20.5,48.6,20.5s26.8-3.8,37-11.5c10.2-7.6,18.3-19.9,24.3-36.6ZM815.2,245.6h129.8c-1.8-19.7-6.7-34.5-14.9-44.3-12.6-15.3-28.8-22.9-48.8-22.9s-33.3,6.1-45.6,18.3c-12.3,12.2-19.2,28.5-20.5,49Z"/><path class="cls-1" d="M1193.9,309.8l40.7,5.1c-6.4,24-18.3,42.6-35.7,55.8-17.4,13.2-39.5,19.8-66.5,19.8s-61-10.5-80.9-31.6c-19.9-21.1-29.9-50.7-29.9-88.8s10.1-70,30.2-91.8c20.1-21.8,46.3-32.6,78.4-32.6s56.5,10.7,76.2,32c19.7,21.3,29.5,51.3,29.5,90s0,5.9-.2,10.6h-173.3c1.5,25.7,8.7,45.4,21.7,59.1,13,13.7,29.2,20.5,48.6,20.5s26.8-3.8,37-11.5c10.2-7.6,18.3-19.9,24.3-36.6ZM1064.5,245.6h129.8c-1.8-19.7-6.7-34.5-14.9-44.3-12.6-15.3-28.8-22.9-48.8-22.9s-33.3,6.1-45.6,18.3c-12.3,12.2-19.2,28.5-20.5,49Z"/><path class="cls-1" d="M459.5,499.2v-103.7h38.8c6.8,0,12.1.3,15.7,1,5.1.8,9.3,2.5,12.7,4.8,3.4,2.4,6.2,5.7,8.2,10,2.1,4.3,3.1,9,3.1,14.2,0,8.8-2.8,16.3-8.4,22.4-5.6,6.1-15.6,9.2-30.2,9.2h-26.4v42.2h-13.6ZM473.2,444.8h26.6c8.8,0,15-1.7,18.7-5,3.7-3.3,5.5-7.9,5.5-13.9s-1.1-8.1-3.3-11.1c-2.2-3.1-5-5.1-8.6-6.1-2.3-.6-6.5-.9-12.7-.9h-26.3v37.1Z"/><path class="cls-1" d="M553.8,499.2v-103.7h12.6v37.2c5.9-6.9,13.3-10.3,22.3-10.3s10.3,1.1,14.4,3.3,7,5.2,8.7,9.1c1.8,3.9,2.6,9.5,2.6,16.8v47.6h-12.6v-47.6c0-6.4-1.4-11-4.1-13.9s-6.6-4.4-11.6-4.4-7.3,1-10.6,2.9c-3.3,2-5.7,4.6-7.1,8-1.4,3.3-2.1,8-2.1,13.9v41.1h-12.6Z"/><path class="cls-1" d="M629.1,461.6c0-13.9,3.8-24.2,11.5-30.9,6.4-5.6,14.2-8.3,23.5-8.3s18.6,3.4,25.1,10.2c6.5,6.8,9.8,16.1,9.8,28.1s-1.4,17.3-4.3,22.8c-2.9,5.5-7.1,9.8-12.6,12.9-5.5,3.1-11.5,4.6-18,4.6-10.4,0-18.9-3.4-25.3-10.1-6.4-6.7-9.7-16.5-9.7-29.2ZM642.1,461.6c0,9.6,2.1,16.8,6.2,21.6,4.2,4.8,9.4,7.2,15.7,7.2s11.5-2.4,15.7-7.2c4.2-4.8,6.2-12.1,6.2-22s-2.1-16.3-6.3-21.1c-4.2-4.8-9.4-7.2-15.6-7.2s-11.6,2.4-15.7,7.1c-4.2,4.8-6.2,12-6.2,21.6Z"/><path class="cls-1" d="M741.4,487.8l1.8,11.2c-3.6.8-6.7,1.1-9.5,1.1-4.6,0-8.1-.7-10.7-2.2s-4.3-3.4-5.3-5.8c-1-2.4-1.5-7.4-1.5-15v-43.2h-9.3v-9.9h9.3v-18.6l12.6-7.6v26.2h12.7v9.9h-12.7v43.9c0,3.6.2,6,.7,7,.4,1,1.2,1.9,2.2,2.5,1,.6,2.4.9,4.3.9s3.3-.2,5.5-.5Z"/><path class="cls-1" d="M749,461.6c0-13.9,3.8-24.2,11.5-30.9,6.4-5.6,14.2-8.3,23.5-8.3s18.6,3.4,25.1,10.2c6.5,6.8,9.8,16.1,9.8,28.1s-1.4,17.3-4.3,22.8c-2.9,5.5-7.1,9.8-12.6,12.9-5.5,3.1-11.5,4.6-18,4.6-10.4,0-18.9-3.4-25.3-10.1-6.4-6.7-9.7-16.5-9.7-29.2ZM762,461.6c0,9.6,2.1,16.8,6.2,21.6,4.2,4.8,9.4,7.2,15.7,7.2s11.5-2.4,15.7-7.2c4.2-4.8,6.2-12.1,6.2-22s-2.1-16.3-6.3-21.1c-4.2-4.8-9.4-7.2-15.6-7.2s-11.6,2.4-15.7,7.1c-4.2,4.8-6.2,12-6.2,21.6Z"/><path class="cls-1" d="M831.4,505.4l12.3,1.8c.5,3.8,1.9,6.6,4.3,8.3,3.1,2.4,7.4,3.5,12.8,3.5s10.4-1.2,13.6-3.5c3.2-2.4,5.3-5.7,6.5-9.9.7-2.6,1-8,.9-16.3-5.5,6.6-12.4,9.8-20.6,9.8s-18.2-3.7-23.8-11.2c-5.6-7.5-8.4-16.4-8.4-26.8s1.3-13.8,3.9-19.8c2.6-6.1,6.3-10.7,11.2-14,4.9-3.3,10.6-5,17.2-5s16.1,3.6,21.8,10.8v-9.1h11.7v65c0,11.7-1.2,20-3.5,24.9-2.4,4.9-6.1,8.7-11.2,11.6s-11.4,4.2-18.9,4.2-16.1-2-21.6-6-8.1-10.1-7.9-18.2ZM841.8,460.3c0,9.9,1.9,17.1,5.8,21.6,3.9,4.5,8.8,6.8,14.6,6.8s10.7-2.3,14.6-6.8c3.9-4.5,5.9-11.6,5.9-21.2s-2-16.1-6.1-20.8c-4-4.7-8.9-7-14.6-7s-10.4,2.3-14.3,6.9-5.9,11.4-5.9,20.5Z"/><path class="cls-1" d="M913.5,499.2v-75.1h11.4v11.4c2.9-5.3,5.6-8.8,8-10.5s5.2-2.5,8.1-2.5c4.3,0,8.6,1.4,13,4.1l-4.4,11.8c-3.1-1.8-6.2-2.8-9.3-2.8s-5.2.8-7.4,2.5c-2.2,1.7-3.8,4-4.7,7-1.4,4.5-2.1,9.5-2.1,14.9v39.3h-12.6Z"/><path class="cls-1" d="M1010.2,489.9c-4.7,4-9.2,6.8-13.5,8.5-4.3,1.7-9,2.5-13.9,2.5-8.2,0-14.5-2-18.9-6-4.4-4-6.6-9.2-6.6-15.5s.8-7,2.5-10.1c1.7-3,3.8-5.5,6.5-7.3,2.7-1.8,5.7-3.2,9.1-4.2,2.5-.7,6.2-1.3,11.2-1.9,10.2-1.2,17.7-2.7,22.5-4.4,0-1.7,0-2.9,0-3.3,0-5.2-1.2-8.8-3.6-11-3.2-2.9-8-4.3-14.4-4.3s-10.3,1.1-13.2,3.1c-2.8,2.1-4.9,5.8-6.3,11.1l-12.4-1.7c1.1-5.3,3-9.6,5.5-12.9,2.6-3.3,6.3-5.8,11.2-7.6,4.9-1.8,10.5-2.7,16.9-2.7s11.5.8,15.5,2.3c4,1.5,6.9,3.4,8.8,5.7,1.9,2.3,3.2,5.2,3.9,8.7.4,2.2.6,6.1.6,11.7v17c0,11.8.3,19.3.8,22.5.5,3.1,1.6,6.1,3.2,9h-13.2c-1.3-2.6-2.2-5.7-2.5-9.3ZM1009.1,461.5c-4.6,1.9-11.5,3.5-20.6,4.8-5.2.8-8.9,1.6-11,2.5-2.2.9-3.8,2.3-5,4.1-1.2,1.8-1.8,3.8-1.8,6,0,3.4,1.3,6.2,3.8,8.5,2.6,2.3,6.3,3.4,11.2,3.4s9.2-1.1,13-3.2c3.8-2.1,6.6-5.1,8.4-8.8,1.4-2.9,2-7.1,2-12.7v-4.7Z"/><path class="cls-1" d="M1041.5,528v-103.9h11.5v9.8c2.7-3.8,5.8-6.7,9.2-8.6,3.4-1.9,7.6-2.9,12.4-2.9s12,1.7,16.9,5c4.9,3.3,8.5,8,11,14,2.5,6,3.7,12.6,3.7,19.8s-1.4,14.6-4.1,20.8-6.7,10.9-11.9,14.2c-5.2,3.3-10.7,4.9-16.5,4.9s-8-.9-11.3-2.7c-3.3-1.8-6.1-4.1-8.2-6.8v36.6h-12.6ZM1053,462.1c0,9.7,1.9,16.8,5.8,21.4,3.9,4.6,8.6,6.9,14.1,6.9s10.4-2.4,14.4-7.2c4-4.8,6-12.2,6-22.3s-2-16.7-5.9-21.5c-3.9-4.8-8.6-7.1-14-7.1s-10.1,2.5-14.3,7.6c-4.1,5.1-6.2,12.4-6.2,22.1Z"/><path class="cls-1" d="M1121.5,499.2v-103.7h12.6v37.2c5.9-6.9,13.3-10.3,22.3-10.3s10.3,1.1,14.4,3.3,7,5.2,8.7,9.1c1.8,3.9,2.6,9.5,2.6,16.8v47.6h-12.6v-47.6c0-6.4-1.4-11-4.1-13.9s-6.6-4.4-11.6-4.4-7.3,1-10.6,2.9c-3.3,2-5.7,4.6-7.1,8-1.4,3.3-2.1,8-2.1,13.9v41.1h-12.6Z"/><path class="cls-1" d="M1200.9,528.1l-1.4-12c2.8.8,5.2,1.1,7.2,1.1s5.1-.5,6.7-1.4c1.7-.9,3.1-2.3,4.1-4,.8-1.3,2.1-4.4,3.9-9.5.2-.7.6-1.7,1.1-3.1l-28.3-75.3h13.6l15.5,43.5c2,5.5,3.8,11.3,5.4,17.4,1.5-5.8,3.2-11.6,5.2-17.1l15.9-43.8h12.6l-28.4,76.4c-3,8.3-5.4,13.9-7.1,17.1-2.2,4.2-4.8,7.3-7.7,9.2-2.9,2-6.4,2.9-10.4,2.9s-5.1-.5-8.1-1.6Z"/></svg>